<svg xmlns="http://www.w3.org/2000/svg" viewBox="0 0 513.1 31.05"><defs><style>.cls-1{isolation:isolate;}.cls-2{opacity:0.5;mix-blend-mode:multiply;}.cls-3{fill:#231815;}.cls-4{fill:#fff;}</style></defs><title>09_Access</title><g class="cls-1"><g id="調整後"><g class="cls-2"><path class="cls-3" d="M506.86,13.57V10.74H372.51v2.83h21.88v4.62H373.76V28.47H503.59V18.19H486.26V13.57ZM480.59,25.63H443.08V21h37.51ZM420.85,13.57h19.4V25.63h-19.4ZM418,25.63H400.06V13.57H418Zm43.82-7.44H443.08V13.57h18.75Zm-85.24,2.07h17.8v6.06h-17.8Zm124.17,5.37H483.43V21h17.33Zm-17.33-7.44v1.28h0V18.19H464.66V13.57h18.77Z"/></g><path class="cls-4" d="M504,10.74V7.9H369.68v2.84h21.88v4.61H370.92V25.63H500.76V15.35H483.43V10.74ZM477.76,22.8H440.25V18.19h37.51ZM418,10.74h19.4V22.8H418ZM415.18,22.8H397.23V10.74h17.95ZM459,15.35H440.25V10.74H459Zm-85.23,2.07h17.8v6.06h-17.8ZM497.92,22.8H480.59V18.19h17.33Zm-17.33-7.45v1.29h0V15.35H461.83V10.74h18.76Z"/><g class="cls-2"><path class="cls-3" d="M145.25,13.57V10.74H10.9v2.83H32.78v4.62H12.15V28.47H142V18.19H124.65V13.57ZM119,25.63H81.47V21H119ZM59.24,13.57H78.63V25.63H59.24ZM56.4,25.63H38.45V13.57H56.4Zm43.82-7.44H81.47V13.57h18.75ZM15,20.26h17.8v6.06H15Zm124.17,5.37H121.82V21h17.33Zm-17.33-7.44v1.28h0V18.19H103.05V13.57h18.77Z"/></g><path class="cls-4" d="M142.41,10.74V7.9H8.07v2.84H30v4.61H9.31V25.63H139.15V15.35H121.82V10.74ZM116.15,22.8H78.63V18.19h37.52ZM56.4,10.74H75.8V22.8H56.4ZM53.57,22.8h-18V10.74h18Zm43.81-7.45H78.63V10.74H97.38ZM12.15,17.42H30v6.06H12.15ZM136.31,22.8H119V18.19h17.33ZM119,15.35v1.29h0V15.35H100.22V10.74H119Z"/><g class="cls-2"><path class="cls-3" d="M329.16,13.57V10.74H194.82v2.83H216.7v4.62H196.06V28.47H325.9V18.19H308.57V13.57ZM302.9,25.63H265.38V21H302.9ZM243.15,13.57h19.4V25.63h-19.4Zm-2.83,12.06H222.37V13.57h17.95Zm43.81-7.44H265.38V13.57h18.75ZM198.9,20.26h17.8v6.06H198.9Zm124.16,5.37H305.73V21h17.33Zm-17.33-7.44v1.28h0V18.19H287V13.57h18.76Z"/></g><path class="cls-4" d="M326.33,10.74V7.9H192v2.84h21.88v4.61H193.23V25.63H323.06V15.35H305.73V10.74ZM300.06,22.8H262.55V18.19h37.51ZM240.32,10.74h19.4V22.8h-19.4ZM237.48,22.8H219.53V10.74h17.95Zm43.82-7.45H262.55V10.74H281.3Zm-85.24,2.07h17.8v6.06h-17.8ZM320.23,22.8H302.9V18.19h17.33ZM302.9,15.35v1.29h0V15.35H284.13V10.74H302.9Z"/></g></g></svg>