<svg id="調整後" xmlns="http://www.w3.org/2000/svg" viewBox="0 0 45.97 45.97"><defs><style>.cls-1{fill:#9fc336;stroke:#fff;stroke-miterlimit:10;stroke-width:0.5px;}.cls-2{fill:#fff;}</style></defs><title>Bara_10_Plug_In</title><circle class="cls-1" cx="22.99" cy="22.99" r="22.74"/><rect class="cls-2" x="21.22" y="26.89" width="1.6" height="1.41"/><rect class="cls-2" x="19.29" y="26.89" width="1.6" height="1.41"/><rect class="cls-2" x="17.36" y="26.89" width="1.6" height="1.41"/><path class="cls-2" d="M32.42,15H13.55a2.76,2.76,0,0,0-2.83,2.68v9.24h5.41v1.4H17v-1.4h-.9v-.21H29.84v.21h-.9v1.4h.9v-1.4h5.42V17.65A2.76,2.76,0,0,0,32.42,15Z"/><rect class="cls-2" x="27.01" y="26.89" width="1.6" height="1.41"/><rect class="cls-2" x="23.15" y="26.89" width="1.6" height="1.41"/><rect class="cls-2" x="25.08" y="26.89" width="1.6" height="1.41"/><path class="cls-2" d="M22.53,12.68h.91a1.7,1.7,0,0,1,1.7,1.7v7.25a0,0,0,0,1,0,0H20.83a0,0,0,0,1,0,0V14.38A1.7,1.7,0,0,1,22.53,12.68Z"/><rect class="cls-2" x="21.63" y="30.98" width="2.72" height="3.14"/><polygon class="cls-2" points="18.38 32.91 22.99 31.21 27.59 32.91 27.59 31.47 22.99 29.77 18.38 31.47 18.38 32.91"/></svg>