<svg id="調整後" xmlns="http://www.w3.org/2000/svg" viewBox="0 0 31.32 31.32"><defs><style>.cls-1{fill:#9fc336;stroke:#fff;stroke-miterlimit:10;stroke-width:0.5px;}.cls-2{fill:#fff;}</style></defs><title>Bara_04_Icon_vector</title><rect class="cls-1" x="0.25" y="0.25" width="30.82" height="30.82" rx="5.67"/><path class="cls-2" d="M19.61,11.75V4.16H11.72v7.59H4.13v7.89h7.59v7.58h7.89V19.64h7.58V11.75ZM7.39,17.33a1.65,1.65,0,1,1,0-3.29,1.65,1.65,0,0,1,0,3.29ZM15.66,6.66A1.65,1.65,0,1,1,14,8.3,1.64,1.64,0,0,1,15.66,6.66Zm0,18.07a1.65,1.65,0,1,1,1.65-1.65A1.65,1.65,0,0,1,15.66,24.73Zm0-5.79a3.25,3.25,0,1,1,3.25-3.25A3.25,3.25,0,0,1,15.66,18.94Zm8-1.61a1.65,1.65,0,1,1,1.64-1.65A1.65,1.65,0,0,1,23.63,17.33Z"/></svg>