<svg id="調整後" xmlns="http://www.w3.org/2000/svg" xmlns:xlink="http://www.w3.org/1999/xlink" viewBox="0 0 82.36 82.36"><defs><style>.cls-1{opacity:0.8;fill:url(#名称未設定グラデーション_70);}.cls-2{opacity:0.5;}.cls-3{fill:url(#名称未設定グラデーション_66);}</style><linearGradient id="名称未設定グラデーション_70" x1="5.51" y1="20.59" x2="76.85" y2="61.77" gradientUnits="userSpaceOnUse"><stop offset="0" stop-color="#b0cf00"/><stop offset="1" stop-color="#00693e"/></linearGradient><linearGradient id="名称未設定グラデーション_66" x1="4" y1="41.18" x2="78.36" y2="41.18" gradientUnits="userSpaceOnUse"><stop offset="0" stop-color="#6fba2c"/><stop offset="1" stop-color="#094"/></linearGradient></defs><title>Bara_01_Accses_Circle</title><g id="アクセス円"><path class="cls-1" d="M82.28,38.74c0-.25,0-.5-.06-.75,0-.56-.09-1.13-.16-1.69,0-.27-.06-.54-.1-.81-.08-.57-.17-1.14-.28-1.7,0-.22-.07-.45-.12-.67-.15-.77-.32-1.54-.52-2.29,0-.11-.06-.22-.09-.34-.17-.64-.36-1.28-.56-1.91l-.25-.72c-.17-.51-.36-1-.55-1.52-.09-.24-.19-.49-.29-.73-.22-.54-.45-1.07-.69-1.6l-.24-.53q-.5-1-1.05-2L77.07,21c-.29-.52-.6-1-.91-1.54l-.42-.65c-.28-.45-.58-.88-.88-1.32l-.44-.61c-.37-.5-.74-1-1.13-1.47L73,15.07c-.48-.59-1-1.16-1.49-1.72l-.42-.44c-.39-.41-.78-.81-1.18-1.2l-.57-.54c-.38-.36-.78-.72-1.18-1.07-.18-.16-.36-.32-.55-.47-.52-.44-1.06-.88-1.61-1.29l-.17-.14c-.61-.45-1.23-.89-1.87-1.31a.91.91,0,0,0-.16-.11l-.51-.32-1.1-.68-.75-.44-1.1-.6L60,4.54l-.58-.28L58.8,4l-1.18-.53-.53-.23L57,3.13,56.63,3c-.67-.28-1.36-.53-2.06-.77l-.36-.14L53.89,2c-.57-.19-1.16-.36-1.75-.52l-.41-.13-.12,0q-1.08-.29-2.19-.51l-.06,0L48.92.74C48.36.63,47.81.53,47.25.45l-.18,0c-.23,0-.46,0-.69-.08C46,.28,45.53.23,45.1.19l-.27,0-.7,0c-.39,0-.77-.06-1.16-.07l-.32,0q-.74,0-1.47,0h-.72c-.23,0-.45,0-.68,0l-1.1,0-.37,0c-.22,0-.43,0-.64.06l-1.11.1-.39,0-.6.09-1.1.16-.42.07-.54.1c-.38.08-.77.15-1.15.24l-.45.09c-.16,0-.31.08-.46.12-.41.1-.82.2-1.22.32l-.52.13-.34.11c-.46.14-.91.28-1.36.44l-.54.17-.19.07c-.72.26-1.43.53-2.13.83h0l0,0c-.75.32-1.49.67-2.23,1l-.27.13-.3.16c-.83.44-1.66.89-2.46,1.37h0l-.49.31c-.39.25-.79.5-1.17.76-.22.14-.42.3-.63.45s-.66.45-1,.69h0c-.82.61-1.61,1.26-2.37,1.93-.13.11-.27.22-.39.34-.73.65-1.44,1.32-2.12,2l-.18.18c-.15.15-.28.31-.43.46l-.59.64-.69.8-.56.67c-.23.28-.44.56-.66.84l-.52.68-.64.89-.47.69-.12.16c-.25.38-.48.76-.72,1.15L6,19.86c-.32.52-.63,1.06-.92,1.6l-.26.48-.6,1.17c-.1.21-.19.42-.29.62l-.3.63c-.06.13-.11.27-.17.4-.13.3-.25.61-.38.91l-.37.94-.34.93c-.06.18-.13.35-.19.53s-.11.36-.17.55l-.18.57c-.14.46-.27.93-.4,1.4,0,.13-.07.25-.1.38l0,.11c0,.11-.05.22-.07.33-.16.66-.31,1.33-.44,2,0,.12-.05.23-.07.34s-.05.31-.07.46c-.09.51-.16,1-.23,1.53,0,.17-.06.34-.08.51l0,.32c-.05.49-.09,1-.13,1.47,0,.21,0,.41,0,.61a1.21,1.21,0,0,0,0,.19c0,.5,0,1,0,1.5,0,.21,0,.42,0,.63v.2c0,.68,0,1.36.05,2v0c0,.61.08,1.22.14,1.82,0,.1,0,.21,0,.31h0c.07.7.16,1.39.27,2.08v0L.57,48c.09.51.17,1,.28,1.52v0c0,.22.1.44.15.66.1.44.2.89.31,1.32,0,0,0,.06,0,.09.06.22.13.43.19.65.12.43.24.86.37,1.28a.57.57,0,0,1,0,.14l.21.6c.15.43.29.86.45,1.28,0,.07,0,.15.08.22l.22.54c.17.42.34.85.52,1.26.05.11.09.23.14.34s.14.28.21.42q.3.67.63,1.32l.21.43.15.27c.33.63.68,1.25,1,1.86l.11.19,0,0c.45.75.93,1.47,1.43,2.18,0,.08.1.17.16.25l.19.24c.58.82,1.18,1.61,1.82,2.37l.07.09.4.45q.43.51.9,1l.58.6c.29.31.58.61.88.9l.24.25c.15.15.31.28.47.43l.69.63c.25.23.51.45.77.67l.71.6.8.63.75.56c.27.21.55.4.83.6l.77.53.87.55c.26.17.52.34.79.5L21,77l.81.46.93.47.83.42,1,.43.85.37c.33.14.66.26,1,.39s.57.23.86.33.68.23,1,.35l.88.29,1.05.3.88.24,1.1.25.87.2c.38.08.76.14,1.15.2s.57.11.86.15l1.21.16.82.1c.46,0,.93.07,1.39.11l.68,0c.69,0,1.39,0,2.09,0A41.17,41.17,0,0,0,82.36,41.18C82.36,40.36,82.33,39.55,82.28,38.74Z"/><g class="cls-2"><path class="cls-3" d="M41.18,4A37.18,37.18,0,1,1,4,41.18,37.19,37.19,0,0,1,41.18,4Z"/></g></g></svg>