<svg id="調整後" xmlns="http://www.w3.org/2000/svg" viewBox="0 0 52.86 11.63"><defs><style>.cls-1{fill:#fff;}</style></defs><title>Bara_02_Accses_moji</title><g id="Access"><path class="cls-1" d="M.05,11.63,0,1.69C.13,1.32,3.68,0,4.09,0S8,1.09,8.08,1.4l0,9.27v1H6V9.1H2v2.53M6,3.21l-2-1-2,1V6.38l4,0Z"/><path class="cls-1" d="M16.46,11.63H12.62a3,3,0,0,1-1.74-.5L9.14,9.88A1.77,1.77,0,0,1,8.3,8.34V6.43A1.89,1.89,0,0,1,9.25,4.8l1.57-1.11a2.88,2.88,0,0,1,1.63-.51h4a1,1,0,0,1,.64.22.65.65,0,0,1,0,1,1,1,0,0,1-.64.21H12.62a1.16,1.16,0,0,0-.7.24l-1.44,1a.75.75,0,0,0-.36.65V8.34a.59.59,0,0,0,.28.49L12,9.94a1.34,1.34,0,0,0,.79.22h3.68a1,1,0,0,1,.63.21.64.64,0,0,1,.27.52.66.66,0,0,1-.26.52A1,1,0,0,1,16.46,11.63Z"/><path class="cls-1" d="M25.34,11.63H21.49a3,3,0,0,1-1.73-.5L18,9.88a1.77,1.77,0,0,1-.84-1.54V6.43a1.88,1.88,0,0,1,.94-1.63L19.7,3.69a2.83,2.83,0,0,1,1.62-.51h4A1,1,0,0,1,26,3.4a.64.64,0,0,1,0,1,1,1,0,0,1-.63.21H21.49a1.16,1.16,0,0,0-.69.24l-1.45,1a.76.76,0,0,0-.35.65V8.34a.57.57,0,0,0,.28.49l1.58,1.11a1.37,1.37,0,0,0,.79.22h3.69a1,1,0,0,1,.63.21.66.66,0,0,1,.26.52.63.63,0,0,1-.26.52A1,1,0,0,1,25.34,11.63Z"/><path class="cls-1" d="M35.09,6V7.72a.66.66,0,0,1-.27.52,1,1,0,0,1-.63.22H27.83v.43a.76.76,0,0,0,.4.64l.52.35a1.49,1.49,0,0,0,.82.28h4.62a1,1,0,0,1,.63.21.64.64,0,0,1,.27.52.66.66,0,0,1-.27.52,1,1,0,0,1-.63.22H29.45a3.22,3.22,0,0,1-1-.17,2.88,2.88,0,0,1-.77-.33l-.8-.58a1.86,1.86,0,0,1-.62-.68A1.63,1.63,0,0,1,26,9.06V5.69a1.65,1.65,0,0,1,.28-.77A2,2,0,0,1,27,4.16l.75-.49a2.92,2.92,0,0,1,1.63-.49h2.53a3,3,0,0,1,1.8.65l.67.53A1.82,1.82,0,0,1,35.09,6Zm-7.24-.12V7h5.46V6A.7.7,0,0,0,33,5.32l-.52-.38a1.37,1.37,0,0,0-.73-.27H29.49a1.29,1.29,0,0,0-.76.24l-.52.36A.63.63,0,0,0,27.85,5.83Z"/><path class="cls-1" d="M37.43,3.18h4.12a3.15,3.15,0,0,1,1.7.47c.49.31.74.62.74.92a.61.61,0,0,1-.28.51.94.94,0,0,1-.6.2A1.12,1.12,0,0,1,42.33,5a1.11,1.11,0,0,0-.74-.32H37.52c-.4,0-.6.14-.6.41s.14.34.4.44L42.1,7.23a2.67,2.67,0,0,1,1.2.85,2,2,0,0,1,.46,1.29,2,2,0,0,1-.82,1.6,2.85,2.85,0,0,1-1.85.66H37.45a3.45,3.45,0,0,1-1.75-.47q-.81-.46-.81-.9a.67.67,0,0,1,.26-.51,1,1,0,0,1,.68-.22,1.18,1.18,0,0,1,.73.31,1.77,1.77,0,0,0,1.13.32H41a1,1,0,0,0,.67-.25A.8.8,0,0,0,42,9.33a.75.75,0,0,0-.6-.71L36.55,6.84a2.3,2.3,0,0,1-1.07-.73,1.6,1.6,0,0,1-.38-1,1.78,1.78,0,0,1,.67-1.37A2.49,2.49,0,0,1,37.43,3.18Z"/><path class="cls-1" d="M46.3,3.18h4.12a3.12,3.12,0,0,1,1.7.47c.49.31.74.62.74.92a.6.6,0,0,1-.27.51,1,1,0,0,1-.61.2A1.16,1.16,0,0,1,51.2,5a1.09,1.09,0,0,0-.74-.32H46.4c-.4,0-.6.14-.6.41s.13.34.4.44L51,7.23a2.69,2.69,0,0,1,1.19.85,2,2,0,0,1,.47,1.29,2,2,0,0,1-.82,1.6,2.9,2.9,0,0,1-1.86.66H46.32a3.48,3.48,0,0,1-1.75-.47c-.54-.31-.8-.61-.8-.9A.64.64,0,0,1,44,9.75a1,1,0,0,1,.68-.22,1.18,1.18,0,0,1,.73.31,1.77,1.77,0,0,0,1.13.32h3.35a1,1,0,0,0,.66-.25.77.77,0,0,0,.27-.58.75.75,0,0,0-.6-.71L45.42,6.84a2.35,2.35,0,0,1-1.07-.73,1.58,1.58,0,0,1-.37-1,1.75,1.75,0,0,1,.67-1.37A2.44,2.44,0,0,1,46.3,3.18Z"/></g></svg>