<svg id="調整後" xmlns="http://www.w3.org/2000/svg" viewBox="0 0 30.82 30.82"><defs><style>.cls-1{fill:#9fc336;}.cls-2{fill:#fff;}</style></defs><title>Bara_08_Icon_chip</title><rect class="cls-1" width="30.82" height="30.82" rx="5.67"/><rect class="cls-2" x="12.36" y="22.04" width="1.26" height="3.01"/><rect class="cls-2" x="13.97" y="22.04" width="1.26" height="3.01"/><rect class="cls-2" x="10.74" y="22.04" width="1.26" height="3.01"/><polygon class="cls-2" points="7.79 22.04 7.79 22.41 6.58 22.41 6.58 25.06 8.77 25.06 8.77 22.04 7.79 22.04"/><rect class="cls-2" x="9.12" y="22.04" width="1.26" height="3.01"/><path class="cls-2" d="M7.79,21.42v.36H23v-.36h1.21V5.84a1.42,1.42,0,0,0-1.41-1.42H8A1.42,1.42,0,0,0,6.58,5.84V21.42ZM9.45,5.55H21.6v13H9.45Z"/><polygon class="cls-2" points="23.04 22.41 23.04 22.04 22.05 22.04 22.05 25.06 24.24 25.06 24.24 22.41 23.04 22.41"/><rect class="cls-2" x="15.59" y="22.04" width="1.26" height="3.01"/><rect class="cls-2" x="20.44" y="22.04" width="1.26" height="3.01"/><rect class="cls-2" x="17.2" y="22.04" width="1.26" height="3.01"/><rect class="cls-2" x="18.82" y="22.04" width="1.26" height="3.01"/></svg>