<svg id="調整後" xmlns="http://www.w3.org/2000/svg" viewBox="0 0 30.82 30.82"><defs><style>.cls-1{fill:#9fc336;}.cls-2{fill:#fff;}</style></defs><title>Bara_09_Icon_disk</title><rect class="cls-1" width="30.82" height="30.82" rx="5.67"/><path class="cls-2" d="M15.41,3.66A11.75,11.75,0,1,0,27.16,15.41,11.75,11.75,0,0,0,15.41,3.66ZM6.29,15.41a.5.5,0,0,1-.5.5.5.5,0,0,1-.5-.5A10.13,10.13,0,0,1,15.41,5.29a.5.5,0,0,1,.5.5.5.5,0,0,1-.5.5A9.13,9.13,0,0,0,6.29,15.41Zm5.43,0a3.7,3.7,0,1,1,3.69,3.7A3.69,3.69,0,0,1,11.72,15.41Zm3.69,10.12a.5.5,0,0,1-.5-.5.5.5,0,0,1,.5-.5,9.13,9.13,0,0,0,9.12-9.12.5.5,0,0,1,.5-.5.5.5,0,0,1,.5.5A10.13,10.13,0,0,1,15.41,25.53Z"/><path class="cls-2" d="M15.41,18.65a3.24,3.24,0,1,1,3.24-3.24A3.24,3.24,0,0,1,15.41,18.65Zm0-5.48a2.24,2.24,0,1,0,2.24,2.24A2.24,2.24,0,0,0,15.41,13.17Z"/></svg>